<mxfile host="app.diagrams.net" modified="2022-11-24T06:51:28.013Z" agent="5.0 (Macintosh; Intel Mac OS X 10_15_7) AppleWebKit/605.1.15 (KHTML, like Gecko) Version/16.1 Safari/605.1.15" etag="wWFm7wJ0GoCZVgTbfn9c" version="20.6.0" type="github">
  <diagram id="R2lEEEUBdFMjLlhIrx00" name="Page-1">
    <mxGraphModel dx="648" dy="433" grid="1" gridSize="10" guides="1" tooltips="1" connect="1" arrows="1" fold="1" page="1" pageScale="1" pageWidth="1200" pageHeight="1920" math="0" shadow="0" extFonts="Permanent Marker^https://fonts.googleapis.com/css?family=Permanent+Marker">
      <root>
        <mxCell id="0" />
        <mxCell id="1" parent="0" />
        <mxCell id="aPQzMLmyDvj-dfu6Mmme-4" style="shape=link;rounded=0;orthogonalLoop=1;jettySize=auto;html=1;exitX=0.25;exitY=0;exitDx=0;exitDy=0;entryX=1;entryY=1;entryDx=0;entryDy=0;" edge="1" parent="1" source="aPQzMLmyDvj-dfu6Mmme-2" target="aPQzMLmyDvj-dfu6Mmme-3">
          <mxGeometry relative="1" as="geometry">
            <mxPoint x="370" y="400" as="targetPoint" />
          </mxGeometry>
        </mxCell>
        <mxCell id="aPQzMLmyDvj-dfu6Mmme-2" value="Vairuotojas" style="rounded=0;whiteSpace=wrap;html=1;" vertex="1" parent="1">
          <mxGeometry x="400" y="440" width="100" height="40" as="geometry" />
        </mxCell>
        <mxCell id="aPQzMLmyDvj-dfu6Mmme-3" value="Teisės" style="ellipse;whiteSpace=wrap;html=1;" vertex="1" parent="1">
          <mxGeometry x="320" y="380" width="90" height="50" as="geometry" />
        </mxCell>
        <mxCell id="aPQzMLmyDvj-dfu6Mmme-5" value="Kelionė&lt;br&gt;" style="rounded=0;whiteSpace=wrap;html=1;" vertex="1" parent="1">
          <mxGeometry x="550" y="590" width="100" height="40" as="geometry" />
        </mxCell>
        <mxCell id="aPQzMLmyDvj-dfu6Mmme-7" value="" style="endArrow=none;html=1;rounded=0;exitX=0.5;exitY=1;exitDx=0;exitDy=0;entryX=0.5;entryY=0;entryDx=0;entryDy=0;" edge="1" parent="1" source="aPQzMLmyDvj-dfu6Mmme-2" target="aPQzMLmyDvj-dfu6Mmme-5">
          <mxGeometry width="50" height="50" relative="1" as="geometry">
            <mxPoint x="510" y="660" as="sourcePoint" />
            <mxPoint x="560" y="610" as="targetPoint" />
          </mxGeometry>
        </mxCell>
        <mxCell id="aPQzMLmyDvj-dfu6Mmme-9" value="N" style="shape=partialRectangle;whiteSpace=wrap;html=1;top=0;bottom=0;fillColor=none;strokeColor=none;sketch=0;noLabel=0;portConstraint=none;snapToPoint=0;" vertex="1" parent="1">
          <mxGeometry x="590" y="560" width="20" height="20" as="geometry" />
        </mxCell>
        <mxCell id="aPQzMLmyDvj-dfu6Mmme-10" value="1" style="shape=partialRectangle;whiteSpace=wrap;html=1;top=0;bottom=0;fillColor=none;strokeColor=none;sketch=0;noLabel=0;portConstraint=none;snapToPoint=0;" vertex="1" parent="1">
          <mxGeometry x="480" y="490" width="20" height="20" as="geometry" />
        </mxCell>
        <mxCell id="aPQzMLmyDvj-dfu6Mmme-11" value="Transporto&lt;br&gt;priemonė" style="verticalLabelPosition=middle;verticalAlign=middle;html=1;shape=mxgraph.basic.rect;fillColor2=none;strokeWidth=1;size=20;indent=5;sketch=0;labelPosition=center;align=center;" vertex="1" parent="1">
          <mxGeometry x="370" y="770" width="100" height="40" as="geometry" />
        </mxCell>
      </root>
    </mxGraphModel>
  </diagram>
</mxfile>
